<?xml version="1.0" standalone="no"?>
<!DOCTYPE svg PUBLIC "-//W3C//DTD SVG 20010904//EN"
 "http://www.w3.org/TR/2001/REC-SVG-20010904/DTD/svg10.dtd">
<svg version="1.0" xmlns="http://www.w3.org/2000/svg"
 width="495.000000pt" height="495.000000pt" viewBox="0 0 495.000000 495.000000"
 preserveAspectRatio="xMidYMid meet">
<metadata>
Created by potrace 1.14, written by Peter Selinger 2001-2017
</metadata>
<g transform="translate(0.000000,495.000000) scale(0.100000,-0.100000)"
fill="#000000" stroke="none">
<path d="M1160 3288 c-391 -77 -705 -282 -920 -598 -79 -116 -145 -282 -165
-415 -44 -288 116 -534 382 -590 66 -14 287 -15 323 -1 8 3 27 8 43 11 65 12
82 17 141 37 119 40 327 152 416 223 14 11 53 47 88 81 54 53 62 66 62 97 0
42 -28 77 -61 77 -31 0 -58 -18 -119 -79 -100 -101 -245 -192 -372 -235 -150
-51 -362 -59 -471 -16 -154 59 -230 181 -221 353 3 66 4 67 23 137 21 72 109
235 152 280 8 8 27 32 42 53 65 86 187 199 303 280 51 35 206 114 241 122 10
3 45 11 78 20 179 44 333 34 416 -28 16 -11 38 -41 50 -66 18 -38 21 -58 16
-113 -7 -79 -29 -126 -94 -194 -102 -108 -223 -167 -339 -167 -106 1 -182 58
-169 128 8 43 50 102 95 133 36 25 50 44 56 79 3 20 -30 56 -56 60 -54 8 -181
-104 -224 -198 -81 -174 68 -345 310 -355 204 -8 369 74 533 265 33 38 70 123
79 184 33 212 -63 358 -279 420 -68 20 -105 25 -199 24 -63 0 -135 -4 -160 -9z"/>
<path d="M1252 2810 c-12 -12 -22 -32 -22 -45 0 -25 35 -65 56 -65 25 0 64 23
69 41 10 30 -6 70 -32 80 -35 13 -47 11 -71 -11z"/>
<path d="M2432 2698 c-55 -26 -133 -106 -196 -202 -65 -98 -126 -212 -118
-220 3 -3 0 -6 -6 -6 -7 0 -12 -5 -12 -10 0 -6 -9 -29 -19 -53 -11 -23 -33
-71 -49 -107 -25 -56 -108 -157 -120 -146 -2 2 8 30 22 63 28 67 27 135 -2
162 -10 9 -22 29 -27 45 -11 33 -51 67 -81 68 -103 4 -214 -82 -280 -218 -30
-62 -35 -81 -33 -133 5 -133 109 -193 233 -133 28 13 54 29 58 35 4 6 36 12
71 12 42 1 72 7 87 18 31 22 40 21 40 -1 0 -23 34 -60 66 -72 70 -27 117 -17
193 41 28 22 55 39 59 39 4 0 13 -13 20 -28 14 -33 75 -69 112 -67 35 3 94 16
100 24 9 11 89 71 94 71 3 0 6 -5 6 -10 0 -17 51 -60 89 -76 18 -8 53 -14 76
-14 47 0 144 20 160 32 51 40 115 75 115 62 0 -8 4 -14 9 -14 5 0 12 -9 16
-19 8 -27 94 -61 153 -61 27 0 52 3 55 7 4 3 21 8 38 10 31 3 111 41 117 56 2
4 10 7 17 7 7 0 15 7 19 15 9 24 21 18 34 -18 13 -36 62 -71 102 -72 42 -2
101 23 157 67 29 22 55 39 56 37 1 -2 9 -17 17 -34 16 -31 77 -68 120 -71 36
-3 89 15 136 47 33 22 49 27 85 24 27 -2 58 3 76 12 48 23 122 100 187 194 81
116 92 127 121 121 14 -2 25 -6 25 -9 0 -3 -24 -34 -54 -70 -74 -89 -98 -139
-100 -208 -1 -52 1 -59 32 -86 29 -26 40 -30 83 -27 27 2 49 6 49 11 0 4 3 6
8 5 17 -5 76 37 139 99 119 119 136 150 102 184 -10 10 -23 19 -29 19 -5 0
-54 -45 -109 -100 -54 -55 -104 -100 -110 -100 -32 0 15 100 100 212 69 90 77
115 52 147 -16 20 -28 23 -81 22 -33 0 -64 4 -67 9 -3 6 -2 10 3 10 13 0 36
85 29 105 -14 35 -97 9 -161 -51 -46 -44 -67 -90 -61 -138 3 -20 2 -36 -3 -36
-4 0 -13 -12 -20 -27 -23 -52 -155 -203 -167 -191 -4 3 4 26 16 50 27 52 31
145 6 162 -8 7 -23 29 -33 51 -21 44 -53 65 -102 65 -35 0 -132 -37 -132 -50
0 -4 -6 -10 -12 -13 -8 -3 -14 5 -14 20 -3 35 -8 38 -75 35 -32 -1 -59 2 -59
7 0 7 35 58 50 71 9 8 30 60 30 74 0 29 -37 59 -73 61 -45 2 -67 -19 -123
-123 -36 -66 -48 -80 -88 -99 -25 -13 -47 -27 -47 -33 -1 -5 -2 -16 -4 -22 -1
-7 5 -24 12 -36 13 -22 12 -27 -12 -62 -44 -63 -125 -149 -171 -181 -47 -32
-160 -66 -187 -56 -23 9 -21 33 7 92 28 58 71 106 139 158 52 40 67 45 67 24
0 -8 11 -24 25 -37 l24 -23 31 33 c29 31 35 50 30 95 -3 33 -39 58 -90 63 -98
9 -251 -94 -390 -264 -55 -68 -188 -143 -255 -146 -46 -2 -59 12 -50 51 6 28
11 31 42 31 53 0 111 19 178 59 119 72 161 176 96 242 -24 23 -38 29 -73 29
-82 0 -242 -97 -323 -197 -88 -107 -196 -203 -230 -203 -17 0 -24 56 -13 96 4
18 20 39 34 49 42 27 256 246 304 310 25 33 47 62 50 65 3 3 22 31 42 62 73
111 72 189 0 224 -69 34 -133 16 -217 -61 -27 -24 -51 -42 -54 -40 -2 3 -6 17
-7 32 -4 33 -40 71 -74 77 -14 2 -25 5 -25 6 0 10 -52 2 -83 -12z m27 -184
c-68 -112 -202 -284 -213 -273 -13 13 116 222 183 295 28 31 63 56 69 49 2 -1
-16 -34 -39 -71z m335 9 c-20 -38 -40 -70 -43 -73 -3 -3 -35 -43 -70 -90 -61
-80 -106 -130 -117 -130 -11 0 79 155 133 229 32 44 115 131 125 131 5 0 -7
-30 -28 -67z m-334 -208 c0 -2 -20 -46 -44 -97 -25 -51 -48 -106 -52 -122 -13
-53 -207 -227 -228 -205 -12 11 -15 70 -5 95 5 16 24 40 42 54 48 38 267 260
267 271 0 5 5 9 10 9 6 0 10 -2 10 -5z m1508 -128 c-9 -6 -38 -46 -66 -88 -54
-81 -175 -199 -204 -199 -27 0 -22 29 22 132 55 127 71 145 140 152 30 3 69 9
85 14 36 11 45 7 23 -11z m-2142 -73 c5 -47 3 -54 -25 -85 -17 -18 -31 -43
-31 -54 0 -11 -4 -26 -8 -33 -16 -24 -76 -62 -99 -62 -19 0 -23 5 -23 34 0 45
17 92 52 144 40 58 109 125 119 115 5 -5 11 -31 15 -59z m1158 25 c-16 -17
-47 -40 -69 -50 l-40 -20 45 41 c38 35 71 57 89 59 3 1 -8 -13 -25 -30z m1193
-25 c3 -46 0 -55 -27 -84 -16 -18 -30 -42 -30 -55 0 -45 -96 -113 -122 -87
-31 31 26 164 103 240 56 55 72 52 76 -14z"/>
</g>
</svg>
